# xmcd
#
# Track frame offsets:
#	150
#	15232
#	33920
#	52251
#	67309
#	82407
#	97516
#	112559
#	127529
#	144413
#	162560
#	175772
#	195011
#	209336
#	222224
#	235616
#	253214
#	267145
#	284008
#	301935
#	316865
#
# Disc length: 4435 seconds
#
# Revision: 0
# Processed by: cddbd v1.5.2PL0 Copyright (c) Steve Scherf et al.
# Submitted via: dBpowerAMP V4.0
#
DISCID=19115115
DTITLE=Bellamy Brothers - Best of the Best Vol 4
DYEAR=2001
DGENRE=Country
TTITLE0=On a Summer night
TTITLE1=She don't know that she's perfect
TTITLE2=Lonely planet
TTITLE3=Can I come on home to you
TTITLE4=Nobody's perfect
TTITLE5=Save your love
TTITLE6=If I said you had a beautiful body (would you hold it against me)
TTITLE7=I could be persuaded
TTITLE8=Houston (we have a problem)
TTITLE9=Lonely eyes
TTITLE10=It's rainin' girls
TTITLE11=Hard way to make an easy livin'
TTITLE12=Get a little crazy
TTITLE13=Have a little compassion
TTITLE14=Not
TTITLE15=Sweet Nostalgia
TTITLE16=I don't wanna lose you
TTITLE17=The strength of the weaker sex
TTITLE18=I'll give you all my love tonight
TTITLE19=When the music meant everything
TTITLE20=Rip off the knob
EXTD=
EXTT0=
EXTT1=
EXTT2=
EXTT3=
EXTT4=
EXTT5=
EXTT6=
EXTT7=
EXTT8=
EXTT9=
EXTT10=
EXTT11=
EXTT12=
EXTT13=
EXTT14=
EXTT15=
EXTT16=
EXTT17=
EXTT18=
EXTT19=
EXTT20=
PLAYORDER=
